<?xml version="1.0" encoding="UTF-8"?>
<!DOCTYPE svg PUBLIC "-//W3C//DTD SVG 1.1//EN" "http://www.w3.org/Graphics/SVG/1.1/DTD/svg11.dtd">
<svg xmlns="http://www.w3.org/2000/svg" version="1.1" width="400px" height="257px" style="shape-rendering:geometricPrecision; text-rendering:geometricPrecision; image-rendering:optimizeQuality; fill-rule:evenodd; clip-rule:evenodd" xmlns:xlink="http://www.w3.org/1999/xlink">
<g><path style="opacity:1" fill="#252525" d="M -0.5,-0.5 C 132.833,-0.5 266.167,-0.5 399.5,-0.5C 399.5,85.1667 399.5,170.833 399.5,256.5C 266.167,256.5 132.833,256.5 -0.5,256.5C -0.5,170.833 -0.5,85.1667 -0.5,-0.5 Z"/></g>
<g><path style="opacity:1" fill="#868686" d="M 378.5,9.5 C 383.197,10.8743 383.531,12.8743 379.5,15.5C 376.025,13.9158 375.692,11.9158 378.5,9.5 Z"/></g>
<g><path style="opacity:1" fill="#98999a" d="M 9.5,10.5 C 11.861,10.6741 14.1944,11.0074 16.5,11.5C 16.5,12.5 16.5,13.5 16.5,14.5C 14.1667,14.5 11.8333,14.5 9.5,14.5C 9.5,13.1667 9.5,11.8333 9.5,10.5 Z"/></g>
<g><path style="opacity:1" fill="#a2a2a1" d="M 20.5,10.5 C 21.6879,11.6843 22.8545,11.6843 24,10.5C 25,11.1667 26,11.8333 27,12.5C 31,11.8333 35,11.1667 39,10.5C 39.49,11.7932 39.6567,13.1266 39.5,14.5C 34.3384,14.3064 29.3384,14.3064 24.5,14.5C 23.3527,14.1822 22.5194,13.5156 22,12.5C 20.951,14.1066 19.451,14.7733 17.5,14.5C 17.5,13.5 17.5,12.5 17.5,11.5C 18.791,11.7373 19.791,11.404 20.5,10.5 Z"/></g>
<g><path style="opacity:1" fill="#adaaa9" d="M 28.5,39.5 C 28.6499,43.1612 27.1499,44.1612 24,42.5C 23.5134,38.7071 25.0134,37.7071 28.5,39.5 Z"/></g>
<g><path style="opacity:1" fill="#a8a4a3" d="M 44.5,37.5 C 45.7498,37.5774 46.5831,38.244 47,39.5C 48.3333,38.1667 49.6667,38.1667 51,39.5C 51.3076,38.6919 51.8076,38.0253 52.5,37.5C 53.8333,39.5 53.8333,41.5 52.5,43.5C 50.1667,43.5 47.8333,43.5 45.5,43.5C 44.5344,41.604 44.2011,39.604 44.5,37.5 Z"/></g>
<g><path style="opacity:1" fill="#2c8466" d="M 169.5,38.5 C 172.861,39.2032 173.194,40.5365 170.5,42.5C 168.358,41.5629 168.024,40.2296 169.5,38.5 Z"/></g>
<g><path style="opacity:1" fill="#aba7a3" d="M 179.5,38.5 C 181.833,39.8333 184.167,39.8333 186.5,38.5C 186.5,39.8333 186.5,41.1667 186.5,42.5C 184.179,41.3751 181.846,41.2084 179.5,42C 180.167,41.6667 180.833,41.3333 181.5,41C 180.244,40.5831 179.577,39.7498 179.5,38.5 Z"/></g>
<g><path style="opacity:1" fill="#a4a5a0" d="M 205.5,38.5 C 207.176,39.1834 207.843,40.5168 207.5,42.5C 205.876,42.6399 204.71,41.9733 204,40.5C 202.913,42.9316 202.413,42.5983 202.5,39.5C 203.791,39.7373 204.791,39.404 205.5,38.5 Z"/></g>
<g><path style="opacity:1" fill="#858585" d="M 338.5,38.5 C 339.978,38.238 341.311,38.5713 342.5,39.5C 341.397,39.9976 340.397,40.3309 339.5,40.5C 341.762,42.5076 341.262,42.841 338,41.5C 337.53,40.4232 337.697,39.4232 338.5,38.5 Z"/></g>
<g><path style="opacity:1" fill="#c3cfd4" d="M 18.5,38.5 C 19.8333,38.5 21.1667,38.5 22.5,38.5C 22.5076,44.2076 22.0076,44.5409 21,39.5C 19.9563,40.6226 19.2896,41.9559 19,43.5C 18.5065,41.8659 18.3398,40.1992 18.5,38.5 Z"/></g>
<g><path style="opacity:1" fill="#adacac" d="M 28.5,39.5 C 29.484,36.9296 30.6507,36.9296 32,39.5C 33.4579,38.2532 34.9579,38.2532 36.5,39.5C 40.6684,36.6743 42.3351,38.0076 41.5,43.5C 39.0459,43.6795 36.8792,43.0128 35,41.5C 33.2382,41.9444 33.4049,42.4444 35.5,43C 33.6874,42.9536 32.0207,43.1203 30.5,43.5C 29.8281,42.0508 29.1614,40.7175 28.5,39.5 Z"/></g>
<g><path style="opacity:1" fill="#a7abad" d="M 191.5,39.5 C 192.222,39.9175 192.722,40.5842 193,41.5C 195.456,39.6787 198.289,39.012 201.5,39.5C 201.5,40.5 201.5,41.5 201.5,42.5C 199.234,42.8588 197.401,42.1922 196,40.5C 194.951,42.1066 193.451,42.7733 191.5,42.5C 191.5,41.5 191.5,40.5 191.5,39.5 Z"/></g>
<g><path style="opacity:1" fill="#b0b7bc" d="M 211.5,40.5 C 211.631,41.3764 211.298,42.0431 210.5,42.5C 209.127,40.1916 209.46,39.5249 211.5,40.5 Z"/></g>
<g><path style="opacity:1" fill="#c7ccc8" d="M 211.5,40.5 C 211.783,39.7109 212.283,39.0442 213,38.5C 213.667,39.8333 213.667,41.1667 213,42.5C 212.722,41.5842 212.222,40.9175 211.5,40.5 Z"/></g>
<g><path style="opacity:1" fill="#949492" d="M 351.5,38.5 C 355.33,38.6715 359.33,39.3382 363.5,40.5C 363.291,41.086 362.957,41.586 362.5,42C 360.19,42.4966 357.857,42.6633 355.5,42.5C 355.649,41.448 355.483,40.448 355,39.5C 353.214,43.3965 352.047,43.0631 351.5,38.5 Z"/></g>
<g><path style="opacity:1" fill="#8c7577" d="M 9.5,38.5 C 11.5,38.5 13.5,38.5 15.5,38.5C 15.5,39.8333 15.5,41.1667 15.5,42.5C 13.5,42.5 11.5,42.5 9.5,42.5C 9.5,41.1667 9.5,39.8333 9.5,38.5 Z"/></g>
<g><path style="opacity:1" fill="#d4dde0" d="M 10.5,39.5 C 11.9778,39.238 13.3112,39.5713 14.5,40.5C 13.8333,40.8333 13.1667,41.1667 12.5,41.5C 11.2867,41.2528 10.62,40.5862 10.5,39.5 Z"/></g>
<g><path style="opacity:1" fill="#bbbbba" d="M 176.5,39.5 C 177.472,38.2486 178.139,38.582 178.5,40.5C 178.167,41.1667 177.833,41.8333 177.5,42.5C 177.407,41.5281 177.074,40.5281 176.5,39.5 Z"/></g>
<g><path style="opacity:1" fill="#bdbbb7" d="M 188.5,39.5 C 189.239,39.369 189.906,39.5357 190.5,40C 189.167,40.6667 189.167,41.3333 190.5,42C 188.939,42.1881 188.272,41.3547 188.5,39.5 Z"/></g>
<g><path style="opacity:1" fill="#979294" d="M 216.5,38.5 C 220.466,39.1621 224.466,39.4955 228.5,39.5C 228.349,42.7181 227.516,43.0515 226,40.5C 222.506,42.377 218.673,43.0436 214.5,42.5C 214.527,40.8007 215.194,39.4674 216.5,38.5 Z"/></g>
<g><path style="opacity:1" fill="#919092" d="M 366.5,38.5 C 371.078,39.2327 375.745,39.566 380.5,39.5C 380.5,40.5 380.5,41.5 380.5,42.5C 375.167,42.5 369.833,42.5 364.5,42.5C 364.527,40.8007 365.194,39.4674 366.5,38.5 Z"/></g>
<g><path style="opacity:1" fill="#edece9" d="M 27.5,62.5 C 29.604,62.2011 31.604,62.5344 33.5,63.5C 32.2533,66.3286 30.7533,68.9952 29,71.5C 28.5906,69.3049 29.0906,67.3049 30.5,65.5C 31.0431,65.44 31.3764,65.1067 31.5,64.5C 30.0508,63.8281 28.7175,63.1614 27.5,62.5 Z"/></g>
<g><path style="opacity:1" fill="#7c8086" d="M 25.5,62.5 C 26.1667,62.5 26.8333,62.5 27.5,62.5C 28.7175,63.1614 30.0508,63.8281 31.5,64.5C 31.3764,65.1067 31.0431,65.44 30.5,65.5C 29.0813,64.5489 27.4147,64.2155 25.5,64.5C 25.5,63.8333 25.5,63.1667 25.5,62.5 Z"/></g>
<g><path style="opacity:1" fill="#d9d9d8" d="M 25.5,62.5 C 25.5,63.1667 25.5,63.8333 25.5,64.5C 24.4314,66.9687 23.0981,69.3021 21.5,71.5C 21.0145,69.2229 21.6812,67.0563 23.5,65C 22.062,64.7811 20.7287,64.2811 19.5,63.5C 21.396,62.5344 23.396,62.2011 25.5,62.5 Z"/></g>
<g><path style="opacity:1" fill="#c7c8c9" d="M 116.5,62.5 C 118.467,62.2606 120.301,62.5939 122,63.5C 121.986,65.992 121.819,68.492 121.5,71C 119.559,71.7429 117.726,71.5762 116,70.5C 115.934,67.8751 116.101,65.2084 116.5,62.5 Z"/></g>
<g><path style="opacity:1" fill="#3a3c3f" d="M 118.5,63.5 C 121.137,65.1538 120.803,65.6538 117.5,65C 118.056,64.6174 118.389,64.1174 118.5,63.5 Z"/></g>
<g><path style="opacity:1" fill="#dedddb" d="M 78.5,62.5 C 80.4672,62.2606 82.3005,62.5939 84,63.5C 83.8333,66 83.6667,68.5 83.5,71C 81.7412,71.7975 80.0745,71.6309 78.5,70.5C 79.3914,69.4104 80.3914,69.4104 81.5,70.5C 82.7388,68.9928 82.4054,67.8261 80.5,67C 82.9741,64.5723 82.4741,64.0723 79,65.5C 78.5172,64.552 78.3505,63.552 78.5,62.5 Z"/></g>
<g><path style="opacity:1" fill="#dddede" d="M 124.5,62.5 C 126.467,62.2606 128.301,62.5939 130,63.5C 129.833,66 129.667,68.5 129.5,71C 127.559,71.7429 125.726,71.5762 124,70.5C 124.083,67.8806 124.25,65.214 124.5,62.5 Z"/></g>
<g><path style="opacity:1" fill="#484143" d="M 126.5,63.5 C 128.76,64.2376 128.927,65.2376 127,66.5C 125.272,65.6477 125.105,64.6477 126.5,63.5 Z"/></g>
<g><path style="opacity:1" fill="#ced7e2" d="M 165.5,62.5 C 166.5,62.5 167.5,62.5 168.5,62.5C 168.817,65.5719 168.484,68.5719 167.5,71.5C 166.686,69.2338 166.186,66.9005 166,64.5C 165.346,65.6956 164.846,65.6956 164.5,64.5C 164.863,63.8165 165.196,63.1499 165.5,62.5 Z"/></g>
<g><path style="opacity:1" fill="#cfd5d7" d="M 170.5,64.5 C 173.672,64.9281 176.672,65.0948 179.5,65C 180.769,67.1385 180.769,69.3052 179.5,71.5C 178.167,64.8333 176.833,64.8333 175.5,71.5C 174.167,64.8333 172.833,64.8333 171.5,71.5C 170.526,69.2573 170.192,66.924 170.5,64.5 Z"/></g>
<g><path style="opacity:1" fill="#d2cfcb" d="M 10.5,62.5 C 12.5,62.5 14.5,62.5 16.5,62.5C 15.9916,65.8515 14.6582,68.8515 12.5,71.5C 12.1667,71.1667 11.8333,70.8333 11.5,70.5C 12.7472,68.677 13.4139,66.677 13.5,64.5C 11.8212,64.7148 10.8212,64.0481 10.5,62.5 Z"/></g>
<g><path style="opacity:1" fill="#e9e8e6" d="M 87.5,62.5 C 89.1439,62.2865 90.6439,62.6198 92,63.5C 91.5988,66.0613 91.7655,68.7279 92.5,71.5C 90.5,71.5 88.5,71.5 86.5,71.5C 87.344,68.4545 87.6773,65.4545 87.5,62.5 Z"/></g>
<g><path style="opacity:1" fill="#494b4d" d="M 88.5,63.5 C 90.4646,63.9483 90.7979,64.9483 89.5,66.5C 88.6143,65.675 88.281,64.675 88.5,63.5 Z"/></g>
<g><path style="opacity:1" fill="#d8d0cb" d="M 94.5,62.5 C 96.045,63.2297 96.8784,64.563 97,66.5C 100.774,63.803 101.274,64.303 98.5,68C 98.7591,69.2613 99.4258,70.2613 100.5,71C 98.892,71.658 97.7253,71.158 97,69.5C 96.6924,70.3081 96.1924,70.9747 95.5,71.5C 94.5159,68.5719 94.1826,65.5719 94.5,62.5 Z"/></g>
<g><path style="opacity:1" fill="#e9ebec" d="M 186.5,62.5 C 188.144,62.2865 189.644,62.6198 191,63.5C 190.599,66.0613 190.765,68.7279 191.5,71.5C 189.396,71.7989 187.396,71.4656 185.5,70.5C 187.256,70.6405 188.922,70.1405 190.5,69C 189.672,68.0853 188.672,67.4186 187.5,67C 189.405,66.1739 189.739,65.0072 188.5,63.5C 186.114,64.9884 185.448,64.6551 186.5,62.5 Z"/></g>
<g><path style="opacity:1" fill="#3d3d3d" d="M 331.5,65.5 C 350.5,65.5 369.5,65.5 388.5,65.5C 388.5,69.8333 388.5,74.1667 388.5,78.5C 369.5,78.5 350.5,78.5 331.5,78.5C 331.5,74.1667 331.5,69.8333 331.5,65.5 Z"/></g>
<g><path style="opacity:1" fill="#272727" d="M 332.5,66.5 C 350.833,66.5 369.167,66.5 387.5,66.5C 387.5,70.1667 387.5,73.8333 387.5,77.5C 369.167,77.5 350.833,77.5 332.5,77.5C 332.5,73.8333 332.5,70.1667 332.5,66.5 Z"/></g>
<g><path style="opacity:1" fill="#d6dddd" d="M 34.5,62.5 C 36.045,63.2297 36.8784,64.563 37,66.5C 37.9653,64.7397 39.132,64.4063 40.5,65.5C 40.0233,66.4776 39.3567,67.3109 38.5,68C 40.2603,68.9653 40.5937,70.132 39.5,71.5C 38.5224,71.0233 37.6891,70.3567 37,69.5C 36.6924,70.3081 36.1924,70.9747 35.5,71.5C 34.5159,68.5719 34.1826,65.5719 34.5,62.5 Z"/></g>
<g><path style="opacity:1" fill="#d4d5d6" d="M 194.5,62.5 C 200.328,63.297 200.995,65.797 196.5,70C 197.5,70.3333 198.5,70.6667 199.5,71C 197.421,71.8077 195.421,71.641 193.5,70.5C 195.041,68.796 196.375,66.9626 197.5,65C 197.167,64.5 196.833,64 196.5,63.5C 194.09,66.0813 193.424,65.748 194.5,62.5 Z"/></g>
<g><path style="opacity:1" fill="#d8d8d7" d="M 202.5,64.5 C 206.847,64.942 207.18,65.7753 203.5,67C 205.002,67.5831 206.335,68.4164 207.5,69.5C 205.878,71.6229 203.878,71.9563 201.5,70.5C 202.025,69.8076 202.692,69.3076 203.5,69C 201.218,67.9158 200.884,66.4158 202.5,64.5 Z"/></g>
<g><path style="opacity:1" fill="#3c3c3e" d="M 88.5,67.5 C 90.4646,67.9483 90.7979,68.9483 89.5,70.5C 88.6143,69.675 88.281,68.675 88.5,67.5 Z"/></g>
<g><path style="opacity:1" fill="#4b4643" d="M 125.5,67.5 C 126.5,67.5 127.5,67.5 128.5,67.5C 128.5,68.5 128.5,69.5 128.5,70.5C 127.5,70.5 126.5,70.5 125.5,70.5C 125.5,69.5 125.5,68.5 125.5,67.5 Z"/></g>
<g><path style="opacity:1" fill="#b9bbbb" d="M 74.5,69.5 C 76.337,69.6395 76.6704,70.3061 75.5,71.5C 74.7025,71.0431 74.3691,70.3764 74.5,69.5 Z"/></g>
<g><path style="opacity:1" fill="#494748" d="M 117.5,68.5 C 118.675,68.281 119.675,68.6143 120.5,69.5C 118.948,70.7979 117.948,70.4646 117.5,68.5 Z"/></g>
<g><path style="opacity:1" fill="#c6c2b9" d="M 135.5,68.5 C 135.539,69.7562 135.039,70.7562 134,71.5C 133.415,70.0024 133.915,69.0024 135.5,68.5 Z"/></g>
<g><path style="opacity:1" fill="#d5cec3" d="M 16.5,69.5 C 18.337,69.6395 18.6704,70.3061 17.5,71.5C 16.7025,71.0431 16.3691,70.3764 16.5,69.5 Z"/></g>
<g><path style="opacity:1" fill="#eae7e2" d="M 67.5,62.5 C 69.1667,62.5 70.8333,62.5 72.5,62.5C 72.75,65.214 72.9167,67.8806 73,70.5C 70.7079,71.9078 68.5412,71.7411 66.5,70C 68.1075,70.0187 69.7741,70.1854 71.5,70.5C 71.6399,68.8762 70.9733,67.7096 69.5,67C 71.9434,64.4417 71.4434,63.6083 68,64.5C 67.5357,63.9056 67.369,63.2389 67.5,62.5 Z"/></g>
<g><path style="opacity:1" fill="#b0afb0" d="M 135.5,68.5 C 135.179,66.9519 134.179,66.2852 132.5,66.5C 132.5,65.1667 132.5,63.8333 132.5,62.5C 133.833,62.5 135.167,62.5 136.5,62.5C 136.459,66.2434 137.126,66.4101 138.5,63C 139.167,62.3333 139.833,62.3333 140.5,63C 137.304,65.5358 137.304,67.0358 140.5,67.5C 139.77,73.7084 138.104,74.0417 135.5,68.5 Z"/></g>
<g><path style="opacity:1" fill="#7e7e7c" d="M 337.5,70.5 C 338.158,71.3984 338.824,72.3984 339.5,73.5C 341.467,72.0471 343.633,71.0471 346,70.5C 347.188,71.5634 347.688,72.8967 347.5,74.5C 344.167,74.5 340.833,74.5 337.5,74.5C 337.5,73.1667 337.5,71.8333 337.5,70.5 Z"/></g>
<g><path style="opacity:1" fill="#7c868d" d="M 354.5,70.5 C 355.782,71.7082 355.782,73.0416 354.5,74.5C 351.875,73.1353 351.875,71.802 354.5,70.5 Z"/></g>
<g><path style="opacity:1" fill="#717273" d="M 356.5,71.5 C 358.833,72.8333 361.167,72.8333 363.5,71.5C 363.646,73.9424 362.813,74.6091 361,73.5C 360.692,74.3081 360.192,74.9747 359.5,75.5C 357.45,74.9234 356.45,73.5901 356.5,71.5 Z"/></g>
<g><path style="opacity:1" fill="#898382" d="M 119.5,80.5 C 118.292,81.2341 116.959,81.5674 115.5,81.5C 115.578,75.2205 116.911,74.8872 119.5,80.5 Z"/></g>
<g><path style="opacity:1" fill="#787778" d="M 201.5,76.5 C 202.222,76.9175 202.722,77.5842 203,78.5C 205.232,77.8126 207.398,77.4793 209.5,77.5C 210.833,78.8333 210.833,80.1667 209.5,81.5C 208.575,80.3595 207.741,80.3595 207,81.5C 206.193,77.551 205.693,77.551 205.5,81.5C 199.964,82.3385 198.63,80.6719 201.5,76.5 Z"/></g>
<g><path style="opacity:1" fill="#717275" d="M 136.5,77.5 C 139.681,77.7423 142.681,77.7423 145.5,77.5C 146.833,78.8333 146.833,80.1667 145.5,81.5C 143.378,80.5729 141.045,80.5729 138.5,81.5C 138.307,77.551 137.807,77.551 137,81.5C 136.51,80.2068 136.343,78.8734 136.5,77.5 Z"/></g>
<g><path style="opacity:1" fill="#8c9091" d="M 169.5,79.5 C 169.631,80.2389 169.464,80.9056 169,81.5C 168.333,80.1667 167.667,80.1667 167,81.5C 164.242,80.2271 163.909,78.5605 166,76.5C 167.155,77.3381 168.322,78.3381 169.5,79.5 Z"/></g>
<g><path style="opacity:1" fill="#827f7a" d="M 190.5,76.5 C 191.612,78.744 193.112,78.744 195,76.5C 197.065,77.6278 197.732,79.2945 197,81.5C 196.193,77.551 195.693,77.551 195.5,81.5C 193.876,81.6399 192.71,80.9733 192,79.5C 191.333,82.1667 190.667,82.1667 190,79.5C 189.331,82.0278 188.498,82.0278 187.5,79.5C 188.77,78.7124 189.77,77.7124 190.5,76.5 Z"/></g>
<g><path style="opacity:1" fill="#7f807e" d="M 9.5,76.5 C 10.4584,76.9528 11.2917,77.6195 12,78.5C 13,75.8333 14,75.8333 15,78.5C 15.414,78.0426 15.914,77.7093 16.5,77.5C 17.8333,78.8333 17.8333,80.1667 16.5,81.5C 15.5745,80.3595 14.7412,80.3595 14,81.5C 13.3333,78.8333 12.6667,78.8333 12,81.5C 10.6283,80.0899 9.79495,78.4233 9.5,76.5 Z"/></g>
<g><path style="opacity:1" fill="#7c7b7d" d="M 18.5,77.5 C 20.8333,77.5 23.1667,77.5 25.5,77.5C 25.5,78.8333 25.5,80.1667 25.5,81.5C 23.1667,80.1667 20.8333,80.1667 18.5,81.5C 18.5,80.1667 18.5,78.8333 18.5,77.5 Z"/></g>
<g><path style="opacity:1" fill="#74706a" d="M 127.5,78.5 C 129.585,77.6497 131.585,77.3163 133.5,77.5C 134.833,78.8333 134.833,80.1667 133.5,81.5C 131.622,81.3775 129.789,81.3775 128,81.5C 127.517,80.552 127.351,79.552 127.5,78.5 Z"/></g>
<g><path style="opacity:1" fill="#7b7777" d="M 169.5,79.5 C 170.514,78.2353 172.014,77.5687 174,77.5C 177.61,78.2835 181.11,78.2835 184.5,77.5C 185.429,78.6888 185.762,80.0222 185.5,81.5C 183.738,81.3573 182.071,81.6906 180.5,82.5C 179.808,81.9747 179.308,81.3081 179,80.5C 175.574,82.0105 172.407,81.6772 169.5,79.5 Z"/></g>
<g><path style="opacity:1" fill="#717073" d="M 68.5,76.5 C 69.7498,76.5774 70.5831,77.244 71,78.5C 72.1939,77.5697 73.5272,76.9031 75,76.5C 77.7266,77.0629 80.3933,77.7295 83,78.5C 83.414,78.0426 83.914,77.7093 84.5,77.5C 85.4287,78.6888 85.762,80.0222 85.5,81.5C 83.8762,81.6399 82.7096,80.9733 82,79.5C 80.1303,80.7435 77.9637,81.4101 75.5,81.5C 73.0363,81.4101 70.8697,80.7435 69,79.5C 68.0703,81.9659 67.237,81.7993 66.5,79C 67.5091,78.6454 68.1757,77.8121 68.5,76.5 Z"/></g>
<g><path style="opacity:1" fill="#807976" d="M 127.5,78.5 C 126.596,79.209 126.263,80.209 126.5,81.5C 123.808,81.1752 121.475,80.8418 119.5,80.5C 121.51,78.9602 123.844,77.9602 126.5,77.5C 127.107,77.6236 127.44,77.9569 127.5,78.5 Z"/></g>
<g><path style="opacity:1" fill="#636363" d="M 15.5,115.5 C 17.8333,115.5 20.1667,115.5 22.5,115.5C 22.5,116.5 22.5,117.5 22.5,118.5C 20.1667,118.5 17.8333,118.5 15.5,118.5C 15.5,117.5 15.5,116.5 15.5,115.5 Z"/></g>
<g><path style="opacity:1" fill="#254974" d="M 328.5,168.5 C 316.167,168.5 303.833,168.5 291.5,168.5C 291.5,185.167 291.5,201.833 291.5,218.5C 303.833,218.5 316.167,218.5 328.5,218.5C 316.011,219.495 303.344,219.829 290.5,219.5C 290.333,182.165 290.5,144.832 291,107.5C 303.42,106.511 315.92,106.178 328.5,106.5C 328.5,127.167 328.5,147.833 328.5,168.5 Z"/></g>
<g><path style="opacity:1" fill="#254974" d="M 173.5,172.5 C 161.167,172.5 148.833,172.5 136.5,172.5C 136.5,187.833 136.5,203.167 136.5,218.5C 148.833,218.5 161.167,218.5 173.5,218.5C 161.011,219.495 148.344,219.829 135.5,219.5C 135.5,191.833 135.5,164.167 135.5,136.5C 148.167,136.5 160.833,136.5 173.5,136.5C 173.5,148.5 173.5,160.5 173.5,172.5 Z"/></g>
<g><path style="opacity:1" fill="#606060" d="M 22.5,167.5 C 22.5,167.833 22.5,168.167 22.5,168.5C 19.6605,169.34 16.8272,169.673 14,169.5C 13.6258,168.584 13.1258,167.75 12.5,167C 15.8605,165.722 19.1938,165.889 22.5,167.5 Z"/></g>
<g><path style="opacity:1" fill="#323333" d="M 84.5,167.5 C 84.5,167.833 84.5,168.167 84.5,168.5C 65.1667,168.5 45.8333,168.5 26.5,168.5C 26.5,176.833 26.5,185.167 26.5,193.5C 45.8333,193.5 65.1667,193.5 84.5,193.5C 84.5,201.833 84.5,210.167 84.5,218.5C 84.5,218.833 84.5,219.167 84.5,219.5C 79.8333,219.5 75.1667,219.5 70.5,219.5C 70.5,219.167 70.5,218.833 70.5,218.5C 74.8333,218.5 79.1667,218.5 83.5,218.5C 83.5,210.5 83.5,202.5 83.5,194.5C 64.5,194.5 45.5,194.5 26.5,194.5C 26.5,202.5 26.5,210.5 26.5,218.5C 28.5,218.5 30.5,218.5 32.5,218.5C 32.5,218.833 32.5,219.167 32.5,219.5C 28.1186,219.372 23.7853,219.705 19.5,220.5C 19.3118,218.897 19.8118,217.563 21,216.5C 22.1096,218.037 23.6096,218.703 25.5,218.5C 25.5,210.5 25.5,202.5 25.5,194.5C 22.6583,195.197 19.9916,195.531 17.5,195.5C 16.4963,194.846 15.4963,194.013 14.5,193C 15.6001,191.977 16.9334,191.477 18.5,191.5C 20.8409,192.182 23.1743,192.849 25.5,193.5C 25.5,185.167 25.5,176.833 25.5,168.5C 24.5,168.5 23.5,168.5 22.5,168.5C 22.5,168.167 22.5,167.833 22.5,167.5C 23.5,167.5 24.5,167.5 25.5,167.5C 25.5,159.5 25.5,151.5 25.5,143.5C 22.2011,144.376 18.8678,144.543 15.5,144C 15.727,142.865 16.0604,141.698 16.5,140.5C 19.2328,141.046 22.2328,141.713 25.5,142.5C 25.5,125.833 25.5,109.167 25.5,92.5C 22.2139,93.2071 18.8806,93.5405 15.5,93.5C 15.238,92.0222 15.5713,90.6888 16.5,89.5C 18.3823,89.3575 20.3823,89.8575 22.5,91C 144.167,91.3333 265.833,91.6667 387.5,92C 267.167,92.5 146.834,92.6667 26.5,92.5C 26.5,117.5 26.5,142.5 26.5,167.5C 45.8333,167.5 65.1667,167.5 84.5,167.5 Z"/></g>
<g><path style="opacity:1" fill="#252525" d="M 84.5,168.5 C 84.5,174.833 84.5,181.167 84.5,187.5C 84.5,189.5 84.5,191.5 84.5,193.5C 65.1667,193.5 45.8333,193.5 26.5,193.5C 26.5,185.167 26.5,176.833 26.5,168.5C 45.8333,168.5 65.1667,168.5 84.5,168.5 Z"/></g>
<g><path style="opacity:1" fill="#254974" d="M 84.5,219.5 C 84.5,219.167 84.5,218.833 84.5,218.5C 96.8333,218.5 109.167,218.5 121.5,218.5C 121.5,208.167 121.5,197.833 121.5,187.5C 109.167,187.5 96.8333,187.5 84.5,187.5C 84.5,181.167 84.5,174.833 84.5,168.5C 84.5,168.167 84.5,167.833 84.5,167.5C 84.5,165.833 84.5,164.167 84.5,162.5C 97.1667,162.5 109.833,162.5 122.5,162.5C 122.5,181.5 122.5,200.5 122.5,219.5C 109.833,219.5 97.1667,219.5 84.5,219.5 Z"/></g>
<g><path style="opacity:1" fill="#254973" d="M 380.5,194.5 C 380.167,194.5 379.833,194.5 379.5,194.5C 367.5,194.5 355.5,194.5 343.5,194.5C 343.167,194.5 342.833,194.5 342.5,194.5C 342.5,183.833 342.5,173.167 342.5,162.5C 355.167,162.5 367.833,162.5 380.5,162.5C 380.5,173.167 380.5,183.833 380.5,194.5 Z"/></g>
<g><path style="opacity:1" fill="#254973" d="M 239.5,218.5 C 251.833,218.5 264.167,218.5 276.5,218.5C 276.5,213.5 276.5,208.5 276.5,203.5C 264.167,203.5 251.833,203.5 239.5,203.5C 239.5,194.5 239.5,185.5 239.5,176.5C 252.08,176.178 264.58,176.511 277,177.5C 277.5,191.496 277.667,205.496 277.5,219.5C 264.656,219.829 251.989,219.495 239.5,218.5 Z"/></g>
<g><path style="opacity:1" fill="#242524" d="M 70.5,218.5 C 70.5,212.833 70.5,207.167 70.5,201.5C 57.8333,201.5 45.1667,201.5 32.5,201.5C 32.5,207.167 32.5,212.833 32.5,218.5C 30.5,218.5 28.5,218.5 26.5,218.5C 26.5,210.5 26.5,202.5 26.5,194.5C 45.5,194.5 64.5,194.5 83.5,194.5C 83.5,202.5 83.5,210.5 83.5,218.5C 79.1667,218.5 74.8333,218.5 70.5,218.5 Z"/></g>
<g><path style="opacity:1" fill="#2669bb" d="M 84.5,187.5 C 96.8333,187.5 109.167,187.5 121.5,187.5C 121.5,197.833 121.5,208.167 121.5,218.5C 109.167,218.5 96.8333,218.5 84.5,218.5C 84.5,210.167 84.5,201.833 84.5,193.5C 84.5,191.5 84.5,189.5 84.5,187.5 Z"/></g>
<g><path style="opacity:1" fill="#266abc" d="M 173.5,172.5 C 173.5,187.833 173.5,203.167 173.5,218.5C 161.167,218.5 148.833,218.5 136.5,218.5C 136.5,203.167 136.5,187.833 136.5,172.5C 148.833,172.5 161.167,172.5 173.5,172.5 Z"/></g>
<g><path style="opacity:1" fill="#254974" d="M 225.5,206.5 C 225.167,206.5 224.833,206.5 224.5,206.5C 212.345,205.505 200.011,205.171 187.5,205.5C 187.5,200.833 187.5,196.167 187.5,191.5C 200.167,191.5 212.833,191.5 225.5,191.5C 225.5,196.5 225.5,201.5 225.5,206.5 Z"/></g>
<g><path style="opacity:1" fill="#266abb" d="M 328.5,168.5 C 328.5,185.167 328.5,201.833 328.5,218.5C 316.167,218.5 303.833,218.5 291.5,218.5C 291.5,201.833 291.5,185.167 291.5,168.5C 303.833,168.5 316.167,168.5 328.5,168.5 Z"/></g>
<g><path style="opacity:1" fill="#264a76" d="M 70.5,218.5 C 70.5,218.833 70.5,219.167 70.5,219.5C 57.8333,219.5 45.1667,219.5 32.5,219.5C 32.5,219.167 32.5,218.833 32.5,218.5C 32.5,212.833 32.5,207.167 32.5,201.5C 45.1667,201.5 57.8333,201.5 70.5,201.5C 70.5,207.167 70.5,212.833 70.5,218.5 Z"/></g>
<g><path style="opacity:1" fill="#266abc" d="M 239.5,203.5 C 251.833,203.5 264.167,203.5 276.5,203.5C 276.5,208.5 276.5,213.5 276.5,218.5C 264.167,218.5 251.833,218.5 239.5,218.5C 239.5,213.5 239.5,208.5 239.5,203.5 Z"/></g>
<g><path style="opacity:1" fill="#266abd" d="M 33.5,211.5 C 45.5,211.5 57.5,211.5 69.5,211.5C 69.5,213.833 69.5,216.167 69.5,218.5C 57.5,218.5 45.5,218.5 33.5,218.5C 33.5,216.167 33.5,213.833 33.5,211.5 Z"/></g>
<g><path style="opacity:1" fill="#2b5c97" d="M 187.5,205.5 C 200.011,205.171 212.345,205.505 224.5,206.5C 224.833,206.5 225.167,206.5 225.5,206.5C 225.5,210.833 225.5,215.167 225.5,219.5C 212.833,219.5 200.167,219.5 187.5,219.5C 187.5,214.833 187.5,210.167 187.5,205.5 Z"/></g>
<g><path style="opacity:1" fill="#266abc" d="M 224.5,206.5 C 224.5,210.5 224.5,214.5 224.5,218.5C 212.5,218.5 200.5,218.5 188.5,218.5C 188.5,214.5 188.5,210.5 188.5,206.5C 200.5,206.5 212.5,206.5 224.5,206.5 Z"/></g>
<g><path style="opacity:1" fill="#2c5a93" d="M 342.5,194.5 C 342.833,194.5 343.167,194.5 343.5,194.5C 343.5,202.5 343.5,210.5 343.5,218.5C 355.5,218.5 367.5,218.5 379.5,218.5C 379.5,210.5 379.5,202.5 379.5,194.5C 379.833,194.5 380.167,194.5 380.5,194.5C 380.5,202.833 380.5,211.167 380.5,219.5C 367.833,219.5 355.167,219.5 342.5,219.5C 342.5,211.167 342.5,202.833 342.5,194.5 Z"/></g>
<g><path style="opacity:1" fill="#2569bb" d="M 343.5,194.5 C 355.5,194.5 367.5,194.5 379.5,194.5C 379.5,202.5 379.5,210.5 379.5,218.5C 367.5,218.5 355.5,218.5 343.5,218.5C 343.5,210.5 343.5,202.5 343.5,194.5 Z"/></g>
<g><path style="opacity:1" fill="#5f5f5f" d="M 45.5,222.5 C 47.1417,223.867 48.8084,224.201 50.5,223.5C 51.3857,224.325 51.719,225.325 51.5,226.5C 48.3463,225.905 45.3463,225.905 42.5,226.5C 42.5,225.5 42.5,224.5 42.5,223.5C 43.791,223.737 44.791,223.404 45.5,222.5 Z"/></g>
<g><path style="opacity:1" fill="#626262" d="M 302.5,223.5 C 304.957,223.792 307.624,223.792 310.5,223.5C 310.5,224.5 310.5,225.5 310.5,226.5C 308.143,226.663 305.81,226.497 303.5,226C 302.748,225.329 302.414,224.496 302.5,223.5 Z"/></g>
<g><path style="opacity:1" fill="#545454" d="M 157.5,222.5 C 158.873,222.343 160.207,222.51 161.5,223C 162.451,223.718 162.617,224.551 162,225.5C 159.051,226.934 156.218,226.768 153.5,225C 155.111,224.71 156.444,223.877 157.5,222.5 Z"/></g>
<g><path style="opacity:1" fill="#5c5c5c" d="M 55.5,222.5 C 57.2247,223.278 58.8914,223.611 60.5,223.5C 59.8169,226.461 58.9836,226.795 58,224.5C 56.1593,227.081 54.3259,227.081 52.5,224.5C 53.6016,223.824 54.6016,223.158 55.5,222.5 Z"/></g>
<g><path style="opacity:1" fill="#5a5a5a" d="M 106.5,222.5 C 108.117,223.038 109.784,223.371 111.5,223.5C 111.5,224.5 111.5,225.5 111.5,226.5C 109.143,226.663 106.81,226.497 104.5,226C 104.043,225.586 103.709,225.086 103.5,224.5C 104.602,223.824 105.602,223.158 106.5,222.5 Z"/></g>
<g><path style="opacity:1" fill="#585858" d="M 199.5,222.5 C 202.37,223.719 205.203,224.052 208,223.5C 208.945,223.905 209.612,224.572 210,225.5C 212.986,221.356 214.153,221.689 213.5,226.5C 208.642,225.447 203.642,225.447 198.5,226.5C 198.433,225.041 198.766,223.708 199.5,222.5 Z"/></g>
<g><path style="opacity:1" fill="#5b5b5b" d="M 251.5,222.5 C 253.764,223.219 256.097,223.552 258.5,223.5C 258.5,224.5 258.5,225.5 258.5,226.5C 256.076,226.808 253.743,226.474 251.5,225.5C 250.209,224.473 250.209,223.473 251.5,222.5 Z"/></g>
<g><path style="opacity:1" fill="#555555" d="M 311.5,222.5 C 313.153,223.605 314.82,223.771 316.5,223C 317.337,224.011 317.67,225.178 317.5,226.5C 315.5,226.5 313.5,226.5 311.5,226.5C 311.5,225.167 311.5,223.833 311.5,222.5 Z"/></g>
<g><path style="opacity:1" fill="#26568f" d="M 206.5,235.5 C 207.5,235.5 208.5,235.5 209.5,235.5C 209.5,236.5 209.5,237.5 209.5,238.5C 208.5,238.5 207.5,238.5 206.5,238.5C 206.5,237.5 206.5,236.5 206.5,235.5 Z"/></g>
<g><path style="opacity:1" fill="#2668b5" d="M 162.5,235.5 C 163.5,235.5 164.5,235.5 165.5,235.5C 165.5,236.5 165.5,237.5 165.5,238.5C 164.5,238.5 163.5,238.5 162.5,238.5C 162.5,237.5 162.5,236.5 162.5,235.5 Z"/></g>
<g><path style="opacity:1" fill="#787679" d="M 186.5,235.5 C 190.775,235.972 194.775,236.638 198.5,237.5C 194.205,238.661 189.871,238.828 185.5,238C 185.167,237.667 184.833,237.333 184.5,237C 185.416,236.722 186.082,236.222 186.5,235.5 Z"/></g>
<g><path style="opacity:1" fill="#8f8c8a" d="M 226.5,235.5 C 229.473,236.084 232.473,236.751 235.5,237.5C 232.593,237.99 229.76,238.323 227,238.5C 223.993,238.001 223.826,237.001 226.5,235.5 Z"/></g>
<g><path style="opacity:1" fill="#8b8c80" d="M 169.5,235.5 C 170.222,235.918 170.722,236.584 171,237.5C 171.669,234.972 172.502,234.972 173.5,237.5C 172.311,238.429 170.978,238.762 169.5,238.5C 169.5,237.5 169.5,236.5 169.5,235.5 Z"/></g>
<g><path style="opacity:1" fill="#909090" d="M 174.5,236.5 C 177.561,236.541 180.561,236.874 183.5,237.5C 181.659,238.23 179.825,238.897 178,239.5C 176.271,239.026 175.105,238.026 174.5,236.5 Z"/></g>
<g><path style="opacity:1" fill="#8e8d8a" d="M 213.5,235.5 C 216.522,235.981 219.522,236.647 222.5,237.5C 220.119,239.769 217.619,239.769 215,237.5C 214.667,237.833 214.333,238.167 214,238.5C 213.517,237.552 213.351,236.552 213.5,235.5 Z"/></g>
</svg>
